<svg xmlns="http://www.w3.org/2000/svg" width="800" height="400" viewBox="0 0 800 400">
  <!-- 背景 -->
  <rect width="800" height="400" fill="#f5f5f5"/>
  
  <!-- 顶部导航栏 -->
  <rect x="0" y="0" width="800" height="60" fill="#ff6b6b"/>
  
  <!-- 网站标志 -->
  <rect x="30" y="10" width="120" height="40" fill="#ffffff" rx="5"/>
  <text x="90" y="35" font-family="Arial" font-size="20" font-weight="bold" text-anchor="middle" fill="#ff6b6b">4399游戏</text>
  
  <!-- 导航链接 -->
  <text x="180" y="35" font-family="Arial" font-size="16" fill="#ffffff">首页</text>
  <text x="240" y="35" font-family="Arial" font-size="16" fill="#ffffff">分类</text>
  <text x="300" y="35" font-family="Arial" font-size="16" fill="#ffffff">最新</text>
  <text x="360" y="35" font-family="Arial" font-size="16" fill="#ffffff">排行榜</text>
  
  <!-- 搜索框 -->
  <rect x="500" y="15" width="250" height="30" fill="#ffffff" rx="15"/>
  <text x="520" y="33" font-family="Arial" font-size="14" fill="#cccccc">搜索游戏...</text>
  
  <!-- 游戏分类区 -->
  <rect x="20" y="80" width="760" height="60" fill="#ffffff" rx="5"/>
  <text x="400" y="115" font-family="Arial" font-size="20" font-weight="bold" text-anchor="middle" fill="#333333">游戏分类</text>
  
  <!-- 分类标签 -->
  <rect x="100" y="105" width="80" height="30" fill="#48dbfb" rx="15"/>
  <text x="140" y="125" font-family="Arial" font-size="14" text-anchor="middle" fill="#ffffff">休闲</text>
  
  <rect x="200" y="105" width="80" height="30" fill="#1dd1a1" rx="15"/>
  <text x="240" y="125" font-family="Arial" font-size="14" text-anchor="middle" fill="#ffffff">益智</text>
  
  <rect x="300" y="105" width="80" height="30" fill="#5f27cd" rx="15"/>
  <text x="340" y="125" font-family="Arial" font-size="14" text-anchor="middle" fill="#ffffff">动作</text>
  
  <rect x="400" y="105" width="80" height="30" fill="#ff9ff3" rx="15"/>
  <text x="440" y="125" font-family="Arial" font-size="14" text-anchor="middle" fill="#ffffff">射击</text>
  
  <rect x="500" y="105" width="80" height="30" fill="#ff6348" rx="15"/>
  <text x="540" y="125" font-family="Arial" font-size="14" text-anchor="middle" fill="#ffffff">赛车</text>
  
  <!-- 热门游戏区域 -->
  <rect x="20" y="160" width="760" height="220" fill="#ffffff" rx="5"/>
  <text x="400" y="190" font-family="Arial" font-size="20" font-weight="bold" text-anchor="middle" fill="#333333">热门游戏推荐</text>
  
  <!-- 游戏卡片 -->
  <rect x="40" y="210" width="140" height="160" fill="#f8f9fa" rx="5"/>
  <rect x="40" y="210" width="140" height="100" fill="#54a0ff"/>
  <text x="110" y="260" font-family="Arial" font-size="14" text-anchor="middle" fill="#ffffff">游戏1</text>
  <text x="110" y="290" font-family="Arial" font-size="12" text-anchor="middle" fill="#666666">益智游戏</text>
  <text x="110" y="310" font-family="Arial" font-size="12" text-anchor="middle" fill="#666666">100万次播放</text>
  
  <rect x="200" y="210" width="140" height="160" fill="#f8f9fa" rx="5"/>
  <rect x="200" y="210" width="140" height="100" fill="#ff9f43"/>
  <text x="270" y="260" font-family="Arial" font-size="14" text-anchor="middle" fill="#ffffff">游戏2</text>
  <text x="270" y="290" font-family="Arial" font-size="12" text-anchor="middle" fill="#666666">动作游戏</text>
  <text x="270" y="310" font-family="Arial" font-size="12" text-anchor="middle" fill="#666666">80万次播放</text>
  
  <rect x="360" y="210" width="140" height="160" fill="#f8f9fa" rx="5"/>
  <rect x="360" y="210" width="140" height="100" fill="#ee5253"/>
  <text x="430" y="260" font-family="Arial" font-size="14" text-anchor="middle" fill="#ffffff">游戏3</text>
  <text x="430" y="290" font-family="Arial" font-size="12" text-anchor="middle" fill="#666666">射击游戏</text>
  <text x="430" y="310" font-family="Arial" font-size="12" text-anchor="middle" fill="#666666">60万次播放</text>
  
  <rect x="520" y="210" width="140" height="160" fill="#f8f9fa" rx="5"/>
  <rect x="520" y="210" width="140" height="100" fill="#10ac84"/>
  <text x="590" y="260" font-family="Arial" font-size="14" text-anchor="middle" fill="#ffffff">游戏4</text>
  <text x="590" y="290" font-family="Arial" font-size="12" text-anchor="middle" fill="#666666">休闲游戏</text>
  <text x="590" y="310" font-family="Arial" font-size="12" text-anchor="middle" fill="#666666">50万次播放</text>
  
  <!-- 页脚 -->
  <rect x="0" y="380" width="800" height="20" fill="#333333"/>
  <text x="400" y="395" font-family="Arial" font-size="10" text-anchor="middle" fill="#ffffff">© 2023 4399游戏网站模仿项目 - 仅用于学习目的</text>
</svg>